<?xml version="1.0" encoding="iso-8859-1"?>
<!-- Uploaded to: SVG Repo, www.svgrepo.com, Generator: SVG Repo Mixer Tools -->
<svg fill="#ffffffff" height="800px" width="800px" version="1.1" id="Layer_1" xmlns="http://www.w3.org/2000/svg" xmlns:xlink="http://www.w3.org/1999/xlink"
	 viewBox="0 0 512.002 512.002" xml:space="preserve">
<g>
	<g>
		<path d="M511.997,331.852c-0.001-0.226-0.002-0.45-0.006-0.679c-0.002-0.238-0.008-0.482-0.012-0.723
			c-0.003-0.239-0.007-0.477-0.012-0.72c-0.006-0.247-0.013-0.499-0.02-0.749c-0.007-0.243-0.012-0.484-0.02-0.729
			c-0.009-0.257-0.019-0.519-0.029-0.778c-0.009-0.245-0.018-0.489-0.029-0.737c-0.011-0.26-0.024-0.523-0.037-0.787
			c-0.012-0.255-0.024-0.51-0.038-0.767c-0.014-0.266-0.031-0.535-0.047-0.805c-0.016-0.256-0.03-0.512-0.048-0.77
			c-0.018-0.274-0.038-0.549-0.058-0.825c-0.019-0.263-0.038-0.524-0.058-0.789c-0.021-0.276-0.045-0.553-0.068-0.831
			c-0.022-0.269-0.046-0.54-0.07-0.811c-0.024-0.276-0.051-0.553-0.078-0.83c-0.027-0.279-0.055-0.559-0.083-0.84
			c-0.029-0.277-0.058-0.555-0.089-0.835c-0.031-0.282-0.062-0.565-0.096-0.849c-0.033-0.283-0.067-0.567-0.101-0.851
			c-0.035-0.285-0.071-0.571-0.108-0.858c-0.037-0.287-0.076-0.574-0.115-0.864c-0.039-0.286-0.08-0.572-0.12-0.859
			c-0.042-0.293-0.085-0.585-0.129-0.879c-0.043-0.289-0.089-0.579-0.136-0.869c-0.047-0.295-0.094-0.589-0.142-0.885
			c-0.048-0.29-0.099-0.582-0.15-0.875c-0.051-0.298-0.103-0.595-0.158-0.895c-0.053-0.294-0.11-0.589-0.166-0.884
			c-0.057-0.298-0.114-0.596-0.172-0.894c-0.059-0.299-0.122-0.6-0.185-0.9c-0.061-0.297-0.122-0.592-0.186-0.89
			c-0.065-0.299-0.132-0.6-0.2-0.899c-0.068-0.302-0.134-0.602-0.205-0.904c-0.07-0.299-0.145-0.6-0.217-0.9
			c-0.073-0.3-0.145-0.601-0.22-0.903c-0.078-0.308-0.16-0.615-0.242-0.925c-0.078-0.295-0.152-0.59-0.233-0.886
			c-0.085-0.313-0.175-0.625-0.264-0.938c-0.082-0.292-0.162-0.583-0.247-0.875c-0.098-0.335-0.201-0.669-0.303-1.003
			c-0.082-0.269-0.16-0.54-0.245-0.809c-0.186-0.593-0.38-1.187-0.579-1.779c-0.094-0.278-0.194-0.556-0.289-0.835
			c-0.112-0.325-0.223-0.649-0.339-0.974c-0.105-0.291-0.216-0.581-0.323-0.87c-0.115-0.309-0.227-0.618-0.346-0.927
			c-0.114-0.296-0.234-0.591-0.351-0.886c-0.12-0.303-0.239-0.607-0.363-0.909c-0.121-0.295-0.247-0.588-0.372-0.881
			c-0.128-0.3-0.254-0.602-0.385-0.902c-0.129-0.294-0.263-0.587-0.396-0.88c-0.135-0.298-0.268-0.595-0.407-0.893
			c-0.137-0.293-0.278-0.583-0.419-0.875c-0.142-0.295-0.284-0.59-0.43-0.883c-0.145-0.29-0.294-0.579-0.442-0.868
			c-0.15-0.293-0.301-0.584-0.455-0.876c-0.154-0.289-0.312-0.577-0.469-0.864c-0.157-0.286-0.314-0.571-0.474-0.856
			c-0.164-0.289-0.331-0.575-0.497-0.863c-0.165-0.282-0.329-0.562-0.499-0.843c-0.171-0.285-0.346-0.568-0.522-0.85
			c-0.174-0.279-0.348-0.558-0.526-0.835c-0.179-0.279-0.362-0.558-0.545-0.835c-0.183-0.276-0.367-0.55-0.554-0.824
			c-0.188-0.276-0.378-0.55-0.572-0.824c-0.191-0.271-0.385-0.541-0.581-0.809c-0.198-0.272-0.398-0.543-0.601-0.812
			c-0.199-0.265-0.402-0.529-0.607-0.791c-0.208-0.268-0.417-0.535-0.63-0.8c-0.208-0.259-0.421-0.516-0.633-0.774
			c-0.218-0.264-0.437-0.526-0.661-0.788c-0.217-0.254-0.439-0.504-0.66-0.755c-0.228-0.258-0.457-0.518-0.691-0.774
			c-0.226-0.247-0.457-0.491-0.689-0.736c-0.239-0.254-0.477-0.508-0.722-0.757c-0.235-0.24-0.476-0.477-0.717-0.716
			c-0.25-0.247-0.499-0.496-0.754-0.74c-0.245-0.234-0.496-0.464-0.747-0.694c-0.26-0.242-0.52-0.484-0.786-0.721
			c-0.255-0.228-0.519-0.451-0.779-0.676c-0.272-0.234-0.539-0.47-0.816-0.7c-0.265-0.22-0.538-0.434-0.807-0.651
			c-0.284-0.228-0.563-0.459-0.853-0.683c-0.272-0.21-0.552-0.414-0.828-0.621c-0.298-0.223-0.591-0.449-0.895-0.667
			c-0.269-0.194-0.549-0.381-0.824-0.571c-0.315-0.219-0.624-0.442-0.946-0.657c-12.834-8.562-36.872-14.835-67.524-22.043
			c-4.418-1.04-8.972-2.098-13.65-3.184c-1.843-0.428-3.706-0.861-5.59-1.3c-0.045-0.01-0.09-0.021-0.135-0.031
			c-1.828-0.425-3.673-0.856-5.537-1.292c-0.275-0.065-0.556-0.131-0.831-0.196c-1.633-0.383-3.272-0.768-4.931-1.159
			c-0.471-0.111-0.951-0.226-1.424-0.338c-1.48-0.349-2.963-0.701-4.461-1.06c-0.529-0.127-1.066-0.256-1.597-0.384
			c-1.461-0.351-2.925-0.701-4.403-1.06c-0.557-0.135-1.122-0.275-1.682-0.411c-1.452-0.354-2.906-0.708-4.372-1.07
			c-0.628-0.155-1.264-0.314-1.895-0.471c-1.415-0.351-2.829-0.702-4.255-1.061c-0.67-0.168-1.347-0.342-2.019-0.512
			c-1.391-0.352-2.784-0.705-4.185-1.065c-0.717-0.184-1.44-0.374-2.159-0.56c-1.373-0.356-2.748-0.711-4.13-1.075
			c-0.74-0.195-1.485-0.395-2.227-0.592c-1.367-0.363-2.734-0.726-4.108-1.097c-0.771-0.208-1.547-0.422-2.32-0.633
			c-1.353-0.37-2.706-0.738-4.066-1.115c-0.796-0.22-1.596-0.447-2.393-0.671c-1.343-0.377-2.688-0.755-4.036-1.14
			c-0.817-0.234-1.637-0.473-2.456-0.71c-1.334-0.386-2.67-0.772-4.009-1.168c-0.831-0.245-1.665-0.496-2.498-0.745
			c-1.331-0.397-2.663-0.796-3.997-1.202c-0.847-0.258-1.695-0.522-2.542-0.784c-1.319-0.407-2.638-0.816-3.959-1.231
			c-0.868-0.274-1.737-0.553-2.606-0.83c-1.306-0.417-2.61-0.836-3.917-1.262c-0.88-0.287-1.76-0.58-2.64-0.872
			c-1.294-0.429-2.588-0.859-3.882-1.297c-0.893-0.302-1.784-0.61-2.677-0.916c-1.283-0.441-2.565-0.884-3.848-1.334
			c-0.9-0.316-1.8-0.638-2.699-0.959c-1.268-0.453-2.537-0.908-3.802-1.371c-0.915-0.334-1.829-0.673-2.742-1.013
			c-1.25-0.464-2.499-0.932-3.746-1.406c-0.923-0.351-1.843-0.706-2.764-1.062c-1.235-0.477-2.469-0.958-3.701-1.447
			c-0.927-0.367-1.853-0.739-2.778-1.112c-1.219-0.491-2.435-0.986-3.65-1.488c-0.935-0.386-1.869-0.777-2.801-1.169
			c-1.194-0.502-2.387-1.009-3.577-1.523c-0.944-0.406-1.887-0.818-2.827-1.231c-1.173-0.515-2.343-1.035-3.51-1.562
			c-0.946-0.426-1.889-0.856-2.83-1.288c-1.153-0.53-2.303-1.065-3.449-1.605c-0.948-0.446-1.894-0.897-2.838-1.351
			c-1.129-0.543-2.254-1.092-3.376-1.646c-0.949-0.469-1.897-0.939-2.84-1.415c-1.106-0.558-2.207-1.122-3.306-1.69
			c-0.947-0.49-1.892-0.982-2.833-1.479c-1.081-0.572-2.157-1.151-3.23-1.733c-0.946-0.513-1.891-1.03-2.832-1.552
			c-1.053-0.584-2.1-1.178-3.144-1.773c-0.945-0.539-1.888-1.078-2.825-1.626c-1.023-0.598-2.039-1.204-3.054-1.812
			c-0.943-0.565-1.883-1.132-2.818-1.706c-0.994-0.611-1.979-1.231-2.964-1.853c-0.936-0.591-1.871-1.183-2.798-1.784
			c-0.352-0.228-0.697-0.462-1.047-0.69v-24.005v-37.041V70.382c0-4.611-3.736-8.348-8.348-8.348H34.937h-0.244
			c-4.611,0-8.348,3.736-8.348,8.348v0.155v163.931c-0.023,0.043-0.051,0.1-0.075,0.145c-0.128,0.245-0.266,0.511-0.411,0.794
			c-0.048,0.092-0.092,0.18-0.141,0.277c-0.177,0.348-0.363,0.721-0.56,1.121c-0.043,0.088-0.087,0.179-0.131,0.269
			c-0.196,0.402-0.398,0.824-0.61,1.272c-0.021,0.044-0.04,0.085-0.062,0.13c-0.227,0.484-0.464,1.001-0.707,1.537
			c-0.048,0.105-0.095,0.209-0.143,0.316c-0.247,0.552-0.5,1.124-0.758,1.726c-0.026,0.059-0.051,0.121-0.077,0.181
			c-0.248,0.581-0.501,1.185-0.756,1.81c-0.036,0.086-0.07,0.169-0.105,0.256c-0.267,0.657-0.535,1.338-0.806,2.039
			c-0.047,0.122-0.094,0.246-0.141,0.37c-0.554,1.451-1.113,2.994-1.663,4.622c-0.046,0.136-0.092,0.269-0.138,0.407
			c-0.268,0.802-0.533,1.623-0.796,2.464c-0.039,0.125-0.077,0.252-0.116,0.376c-0.255,0.826-0.505,1.667-0.75,2.528
			c-0.019,0.065-0.037,0.127-0.056,0.193c-0.252,0.889-0.496,1.8-0.735,2.725c-0.046,0.175-0.09,0.349-0.135,0.525
			c-0.236,0.928-0.465,1.871-0.685,2.833c-0.022,0.1-0.044,0.203-0.067,0.303c-0.203,0.903-0.397,1.821-0.582,2.751
			c-0.032,0.162-0.066,0.322-0.098,0.485c-0.19,0.977-0.37,1.97-0.539,2.975c-0.034,0.204-0.067,0.409-0.1,0.613
			c-0.168,1.041-0.328,2.09-0.47,3.158c-0.125,0.946-0.235,1.889-0.334,2.827c-0.032,0.309-0.057,0.617-0.087,0.926
			c-0.06,0.629-0.12,1.258-0.169,1.882c-0.029,0.366-0.05,0.73-0.075,1.095c-0.038,0.565-0.076,1.13-0.104,1.692
			c-0.02,0.387-0.033,0.772-0.048,1.158c-0.021,0.538-0.04,1.075-0.051,1.611c-0.009,0.394-0.013,0.786-0.018,1.178
			c-0.006,0.525-0.008,1.05-0.004,1.573c0.002,0.393,0.008,0.785,0.014,1.176c0.01,0.521,0.025,1.041,0.042,1.559
			c0.013,0.387,0.028,0.774,0.047,1.16c0.024,0.524,0.057,1.046,0.091,1.568c0.024,0.373,0.047,0.747,0.076,1.119
			c0.042,0.545,0.093,1.087,0.145,1.629c0.032,0.343,0.062,0.686,0.098,1.026c0.065,0.608,0.141,1.212,0.219,1.815
			c0.035,0.273,0.065,0.546,0.102,0.818c0.12,0.873,0.252,1.742,0.397,2.607c0.014,0.088,0.033,0.174,0.048,0.26
			c0.134,0.777,0.276,1.549,0.43,2.318c0.059,0.292,0.125,0.581,0.187,0.873c0.119,0.562,0.238,1.124,0.368,1.683
			c0.078,0.335,0.162,0.667,0.245,1.001c0.126,0.511,0.252,1.022,0.387,1.529c0.094,0.351,0.191,0.698,0.289,1.046
			c0.137,0.487,0.275,0.975,0.42,1.459c0.106,0.354,0.216,0.707,0.326,1.058c0.149,0.475,0.303,0.951,0.461,1.422
			c0.118,0.353,0.237,0.705,0.359,1.055c0.165,0.471,0.334,0.939,0.506,1.407c0.128,0.345,0.255,0.689,0.386,1.032
			c0.182,0.474,0.372,0.946,0.563,1.417c0.135,0.331,0.267,0.662,0.406,0.992c0.206,0.489,0.421,0.974,0.637,1.459
			c0.136,0.305,0.267,0.611,0.406,0.914c0.25,0.545,0.511,1.086,0.773,1.626c0.116,0.238,0.226,0.48,0.344,0.717
			c0.384,0.774,0.78,1.542,1.19,2.304c0.073,0.137,0.152,0.272,0.227,0.409c0.341,0.627,0.686,1.25,1.043,1.869
			c0.157,0.272,0.322,0.541,0.482,0.811c0.284,0.48,0.569,0.959,0.863,1.436c0.187,0.303,0.382,0.603,0.573,0.905
			c0.279,0.44,0.56,0.878,0.848,1.313c0.207,0.313,0.418,0.623,0.63,0.934c0.285,0.419,0.572,0.837,0.866,1.252
			c0.223,0.315,0.449,0.628,0.676,0.942c0.296,0.407,0.594,0.813,0.898,1.216c0.235,0.312,0.471,0.623,0.711,0.933
			c0.308,0.4,0.622,0.797,0.939,1.192c0.245,0.307,0.491,0.613,0.741,0.918c0.328,0.4,0.663,0.797,1,1.192
			c0.249,0.293,0.495,0.587,0.749,0.877c0.357,0.411,0.725,0.817,1.091,1.224c0.244,0.271,0.484,0.543,0.731,0.811
			c0.421,0.456,0.853,0.907,1.286,1.359c0.204,0.213,0.402,0.427,0.608,0.639c0.018,0.018,0.034,0.037,0.052,0.055L2.211,386.624
			c-2.035,2.197-2.706,5.29-1.843,8.108c1.282,30.673,26.618,55.235,57.588,55.235c28.954,0,52.982-21.467,57.038-49.324h18.109
			c4.056,27.857,28.085,49.324,57.038,49.324c28.954,0,52.982-21.467,57.038-49.324h17.397
			c4.056,27.857,28.083,49.324,57.037,49.324c28.955,0,52.984-21.467,57.04-49.324h17.741c4.057,27.857,28.085,49.324,57.039,49.324
			c31.79,0,57.652-25.872,57.652-57.672v-43.607c0-0.004,0.001-0.01,0.002-0.014c0.011-0.086,0.023-0.18,0.036-0.281
			c0.007-0.041,0.011-0.077,0.016-0.116c0.012-0.096,0.024-0.198,0.037-0.305c0.007-0.052,0.012-0.105,0.019-0.159
			c0.012-0.102,0.024-0.21,0.037-0.322c0.008-0.07,0.016-0.141,0.024-0.215c0.013-0.118,0.027-0.242,0.04-0.37
			c0.008-0.075,0.016-0.15,0.024-0.229c0.013-0.128,0.027-0.259,0.04-0.395c0.01-0.094,0.019-0.188,0.028-0.285
			c0.013-0.139,0.027-0.281,0.041-0.426c0.01-0.104,0.019-0.209,0.029-0.316c0.013-0.145,0.027-0.292,0.04-0.443
			c0.011-0.122,0.021-0.247,0.032-0.373c0.012-0.151,0.026-0.304,0.038-0.461c0.011-0.132,0.021-0.268,0.031-0.405
			c0.012-0.163,0.024-0.326,0.038-0.495c0.01-0.145,0.021-0.293,0.031-0.442c0.012-0.169,0.023-0.337,0.034-0.512
			c0.01-0.156,0.02-0.317,0.03-0.477c0.011-0.178,0.022-0.356,0.032-0.54c0.01-0.16,0.018-0.326,0.027-0.491
			c0.011-0.195,0.021-0.388,0.031-0.589c0.008-0.162,0.016-0.329,0.023-0.494c0.01-0.208,0.02-0.415,0.029-0.629
			c0.008-0.178,0.013-0.362,0.021-0.544c0.008-0.208,0.016-0.414,0.023-0.627c0.007-0.199,0.012-0.405,0.018-0.609
			c0.007-0.206,0.012-0.409,0.018-0.618c0.006-0.218,0.01-0.443,0.014-0.666c0.004-0.203,0.009-0.402,0.012-0.609
			c0.003-0.197,0.004-0.402,0.007-0.603c0.006-0.489,0.009-0.987,0.01-1.495c0-0.186,0.001-0.368,0.001-0.557
			C512.002,332.34,511.998,332.095,511.997,331.852z M43.039,78.729h142.594v14.491h-72.752c-4.611,0-8.348,3.736-8.348,8.348
			v37.042c0,4.611,3.736,8.348,8.348,8.348h72.753v17.825c-26.094,43.246-58.575,67.263-96.573,71.367
			c-20.958,2.266-38.108-2.422-46.022-5.202V78.729z M185.634,109.916v20.347h-64.405v-20.347H185.634z M57.957,433.268
			c-19.725,0-36.237-14.025-40.101-32.629h10.284c3.653,13.039,15.632,22.632,29.817,22.632c14.185,0,26.165-9.593,29.818-22.632
			H98.06C94.194,419.243,77.682,433.268,57.957,433.268z M46.382,400.639h23.153c-2.596,3.594-6.818,5.937-11.576,5.937
			C53.2,406.576,48.977,404.233,46.382,400.639z M190.143,433.268c-19.725,0-36.237-14.025-40.101-32.629h10.284
			c3.653,13.039,15.632,22.632,29.817,22.632c14.185,0,26.165-9.593,29.819-22.632h10.283
			C226.381,419.243,209.868,433.268,190.143,433.268z M178.567,400.639h23.153c-2.594,3.594-6.817,5.937-11.576,5.937
			C185.385,406.576,181.162,404.233,178.567,400.639z M321.617,433.268c-19.724,0-36.236-14.025-40.099-32.629h10.283
			c3.653,13.039,15.632,22.632,29.817,22.632c14.185,0,26.165-9.593,29.819-22.632h10.284
			C357.856,419.243,341.342,433.268,321.617,433.268z M310.041,400.639h23.153c-2.594,3.594-6.817,5.937-11.576,5.937
			C316.859,406.576,312.636,404.233,310.041,400.639z M453.438,433.268c-19.725,0-36.237-14.025-40.101-32.629h10.284
			c3.653,13.039,15.632,22.632,29.818,22.632c14.185,0,26.165-9.593,29.819-22.632h10.284
			C489.676,419.243,473.162,433.268,453.438,433.268z M441.862,400.639h23.153c-2.594,3.594-6.817,5.937-11.576,5.937
			C448.68,406.576,444.458,404.233,441.862,400.639z M494.394,383.944h-18.335h-45.243h-26.682H370.92h-26.682h-45.243h-26.681
			h-32.869h-26.681h-45.243h-26.682h-33.58H80.579H35.336h-7.892l25.975-28.052l53.829,0.07c0.004,0,0.008,0,0.011,0
			c4.606,0,8.341-3.731,8.348-8.336c0.007-4.611-3.726-8.352-8.336-8.359l-54.294-0.07c-0.076-0.07-0.15-0.14-0.225-0.211
			c-1.021-0.951-2.011-1.914-2.964-2.893c-0.089-0.092-0.176-0.185-0.264-0.277c-0.969-1.004-1.908-2.021-2.806-3.055
			c-0.053-0.061-0.103-0.124-0.157-0.186c-0.924-1.07-1.814-2.153-2.662-3.253c-0.01-0.012-0.019-0.026-0.029-0.038
			c-0.853-1.107-1.664-2.232-2.44-3.37c-0.03-0.045-0.063-0.088-0.094-0.132c-0.752-1.109-1.463-2.235-2.141-3.372
			c-0.055-0.091-0.111-0.18-0.165-0.27c-0.653-1.107-1.269-2.229-1.853-3.364c-0.065-0.126-0.134-0.252-0.197-0.378
			c-0.565-1.113-1.094-2.24-1.593-3.38c-0.067-0.152-0.136-0.303-0.201-0.456c-0.484-1.126-0.933-2.267-1.352-3.418
			c-0.062-0.17-0.125-0.339-0.186-0.511c-0.406-1.145-0.78-2.303-1.123-3.473c-0.053-0.183-0.107-0.365-0.159-0.549
			c-0.333-1.17-0.633-2.351-0.903-3.544c-0.042-0.187-0.083-0.374-0.124-0.562c-0.26-1.2-0.49-2.411-0.687-3.635
			c-0.03-0.185-0.058-0.371-0.086-0.557c-0.189-1.235-0.348-2.482-0.473-3.741c-0.018-0.176-0.031-0.354-0.048-0.53
			c-0.117-1.279-0.205-2.568-0.256-3.871c-0.006-0.156-0.009-0.312-0.013-0.467c-0.045-1.331-0.059-2.675-0.034-4.031
			c0.002-0.124,0.008-0.248,0.011-0.371c0.031-1.396,0.095-2.803,0.198-4.224c0.006-0.075,0.013-0.15,0.019-0.225
			c0.111-1.476,0.258-2.964,0.449-4.468c0.09-0.713,0.19-1.418,0.295-2.119c0.033-0.22,0.069-0.437,0.104-0.656
			c0.076-0.484,0.155-0.965,0.237-1.441c0.042-0.244,0.086-0.488,0.13-0.729c0.083-0.461,0.17-0.917,0.259-1.371
			c0.044-0.226,0.088-0.452,0.134-0.676c0.111-0.544,0.226-1.082,0.344-1.616c0.026-0.117,0.05-0.237,0.077-0.354
			c0.146-0.65,0.297-1.29,0.453-1.923c0.043-0.177,0.089-0.349,0.132-0.525c0.115-0.456,0.23-0.91,0.349-1.358
			c0.058-0.219,0.117-0.436,0.176-0.653c0.11-0.405,0.221-0.806,0.335-1.202c0.06-0.213,0.12-0.425,0.181-0.634
			c0.125-0.426,0.25-0.846,0.377-1.262c0.049-0.161,0.098-0.325,0.147-0.485c0.175-0.564,0.352-1.12,0.53-1.664
			c0.041-0.124,0.081-0.243,0.122-0.366c0.14-0.423,0.281-0.84,0.422-1.251c0.066-0.191,0.132-0.38,0.199-0.569
			c0.119-0.338,0.238-0.674,0.357-1.004c0.068-0.188,0.137-0.376,0.205-0.562c0.125-0.337,0.248-0.669,0.372-0.995
			c0.059-0.155,0.118-0.313,0.176-0.465c0.179-0.465,0.357-0.923,0.533-1.365c0.004-0.011,0.009-0.022,0.013-0.033
			c0.178-0.444,0.354-0.875,0.528-1.294c0.052-0.127,0.105-0.249,0.157-0.374c0.126-0.3,0.252-0.597,0.375-0.884
			c0.053-0.126,0.107-0.249,0.16-0.372c0.128-0.295,0.255-0.582,0.378-0.861c0.026-0.058,0.052-0.117,0.078-0.174
			c9.882,3.345,28.474,7.976,51.183,5.696c29.311-2.94,71.064-18.333,106.653-74.038c0.865,0.55,1.744,1.08,2.616,1.621
			c0.887,0.551,1.77,1.107,2.663,1.649c1.131,0.687,2.273,1.357,3.414,2.03c0.879,0.519,1.753,1.044,2.638,1.555
			c1.186,0.686,2.385,1.355,3.582,2.026c0.853,0.479,1.7,0.966,2.558,1.438c1.276,0.702,2.562,1.386,3.848,2.072
			c0.791,0.423,1.577,0.855,2.372,1.272c1.485,0.779,2.982,1.539,4.48,2.298c0.605,0.307,1.205,0.623,1.812,0.927
			c2.115,1.06,4.241,2.1,6.376,3.122c0.179,0.086,0.361,0.167,0.541,0.254c1.956,0.933,3.919,1.852,5.89,2.755
			c0.697,0.318,1.398,0.625,2.097,0.939c1.458,0.658,2.915,1.317,4.381,1.959c0.667,0.292,1.339,0.574,2.007,0.864l-23.492,23.458
			c-3.262,3.259-3.267,8.543-0.009,11.806c1.631,1.633,3.77,2.449,5.908,2.449c2.135,0,4.268-0.812,5.899-2.44l28.442-28.401
			c0.308,0.12,0.618,0.237,0.926,0.356c0.976,0.377,1.954,0.745,2.932,1.115c1.228,0.466,2.454,0.933,3.684,1.389
			c0.994,0.37,1.989,0.729,2.983,1.092c1.217,0.444,2.433,0.888,3.651,1.323c1.004,0.358,2.009,0.709,3.013,1.062
			c0.16,0.057,0.321,0.114,0.48,0.169l-22.711,22.678c-3.262,3.258-3.267,8.543-0.009,11.806c1.631,1.633,3.77,2.449,5.908,2.449
			c2.135,0,4.268-0.813,5.899-2.44l28.622-28.58c0.589,0.187,1.174,0.365,1.762,0.551c1.201,0.378,2.401,0.753,3.599,1.124
			c1.006,0.312,2.01,0.619,3.015,0.925c1.204,0.366,2.407,0.73,3.609,1.09c0.993,0.297,1.984,0.591,2.976,0.884
			c0.341,0.1,0.683,0.204,1.023,0.304l-22.186,22.154c-3.262,3.259-3.267,8.543-0.009,11.806c1.631,1.633,3.77,2.449,5.908,2.449
			c2.135,0,4.268-0.813,5.899-2.44l28.825-28.782c0.036,0.01,0.072,0.019,0.109,0.029c1.193,0.323,2.382,0.64,3.569,0.956
			c0.954,0.254,1.907,0.508,2.856,0.757c1.2,0.316,2.394,0.627,3.587,0.936c0.919,0.238,1.838,0.477,2.753,0.712
			c1.214,0.312,2.421,0.618,3.627,0.925c0.892,0.226,1.784,0.453,2.67,0.677c1.219,0.306,2.429,0.607,3.638,0.907
			c0.861,0.214,1.725,0.43,2.581,0.641c1.224,0.302,2.439,0.598,3.653,0.894c0.828,0.201,1.658,0.406,2.481,0.605
			c1.263,0.306,2.513,0.607,3.765,0.907c0.757,0.181,1.518,0.366,2.271,0.545c1.322,0.316,2.63,0.625,3.938,0.936
			c0.668,0.158,1.341,0.319,2.005,0.475c0.975,0.23,1.937,0.455,2.903,0.683l-93.116,92.982l-123.843-0.154
			c-0.004,0-0.008,0-0.011,0c-4.606,0-8.342,3.731-8.348,8.338c-0.006,4.61,3.727,8.352,8.336,8.358l330.559,0.41V383.944z
			 M495.257,333.214c-0.001,1.211-0.019,2.365-0.048,3.45v0.007c-0.03,1.104-0.072,2.138-0.121,3.093h-0.033l-183.749-0.236
			l88.666-88.538c25.693,5.979,48.321,11.393,62.221,17.273c0.027,0.011,0.055,0.022,0.081,0.033
			c0.522,0.221,1.031,0.444,1.528,0.667c0.047,0.021,0.096,0.042,0.144,0.063c0.47,0.211,0.926,0.425,1.372,0.638
			c0.067,0.032,0.136,0.063,0.203,0.095c0.429,0.207,0.843,0.414,1.25,0.622c0.072,0.037,0.149,0.073,0.22,0.111
			c0.405,0.209,0.795,0.42,1.178,0.631c0.062,0.034,0.129,0.069,0.191,0.104c0.423,0.236,0.831,0.474,1.224,0.712
			c0.013,0.008,0.029,0.017,0.042,0.025c0.411,0.249,0.806,0.5,1.183,0.752c0.67,0.447,1.317,0.915,1.951,1.391
			c0.147,0.111,0.295,0.221,0.44,0.334c0.615,0.474,1.218,0.959,1.8,1.46c0.077,0.067,0.15,0.136,0.227,0.203
			c0.525,0.459,1.036,0.928,1.536,1.408c0.122,0.118,0.247,0.235,0.368,0.353c0.538,0.528,1.061,1.066,1.568,1.617
			c0.1,0.109,0.198,0.221,0.298,0.332c0.444,0.492,0.877,0.991,1.298,1.499c0.092,0.111,0.187,0.22,0.278,0.332
			c0.469,0.575,0.922,1.161,1.361,1.755c0.102,0.139,0.203,0.278,0.304,0.418c0.397,0.549,0.786,1.104,1.16,1.667
			c0.052,0.078,0.107,0.155,0.158,0.233c0.41,0.623,0.802,1.255,1.184,1.894c0.091,0.151,0.181,0.305,0.271,0.457
			c0.381,0.649,0.751,1.302,1.105,1.964c0.006,0.011,0.011,0.021,0.017,0.031c0.352,0.66,0.686,1.327,1.012,1.998
			c0.075,0.152,0.149,0.306,0.221,0.46c0.319,0.672,0.629,1.348,0.925,2.03c0.037,0.085,0.071,0.17,0.107,0.255
			c0.269,0.629,0.528,1.262,0.777,1.898c0.056,0.14,0.111,0.279,0.165,0.421c0.267,0.692,0.522,1.388,0.767,2.087
			c0.042,0.122,0.083,0.245,0.126,0.367c0.219,0.639,0.431,1.279,0.632,1.921c0.034,0.108,0.07,0.216,0.104,0.324
			c0.219,0.71,0.427,1.421,0.627,2.134c0.039,0.139,0.077,0.279,0.115,0.42c0.187,0.682,0.366,1.365,0.534,2.047
			c0.012,0.048,0.024,0.096,0.037,0.142c0.178,0.725,0.344,1.448,0.502,2.17c0.031,0.142,0.062,0.285,0.092,0.427
			c0.312,1.455,0.587,2.904,0.827,4.341c0.021,0.128,0.043,0.256,0.063,0.383c0.117,0.717,0.227,1.43,0.327,2.139
			c0.008,0.051,0.014,0.104,0.021,0.155c0.096,0.679,0.184,1.355,0.265,2.025c0.012,0.1,0.024,0.199,0.037,0.299
			c0.083,0.702,0.16,1.4,0.229,2.09c0.008,0.081,0.016,0.16,0.023,0.24c0.065,0.662,0.125,1.319,0.177,1.968
			c0.004,0.052,0.009,0.105,0.013,0.157c0.055,0.684,0.102,1.36,0.145,2.028c0.006,0.09,0.011,0.179,0.017,0.268
			c0.082,1.343,0.14,2.651,0.178,3.914c0.002,0.072,0.004,0.146,0.007,0.218c0.036,1.278,0.052,2.511,0.052,3.688
			C495.257,333.125,495.257,333.169,495.257,333.214z"/>
	</g>
</g>
</svg>